<svg version="1.1" id="Layer_1" xmlns="http://www.w3.org/2000/svg" xmlns:xlink="http://www.w3.org/1999/xlink" x="0px" y="0px"
	 width="100%" viewBox="0 0 1080 1080" enable-background="new 0 0 1080 1080" xml:space="preserve">
<path fill="#000000" opacity="1.000000" stroke="none" 
	d="
M994.000000,1081.000000 
	C662.666687,1081.000000 331.833344,1081.000000 1.000000,1081.000000 
	C1.000000,721.000000 1.000000,361.000000 1.000000,1.000000 
	C361.000000,1.000000 721.000000,1.000000 1081.000000,1.000000 
	C1081.000000,361.000000 1081.000000,721.000000 1081.000000,1081.000000 
	C1052.166626,1081.000000 1023.333313,1081.000000 994.000000,1081.000000 
M810.956543,619.284241 
	C810.956543,613.586426 810.956543,607.888672 810.956543,602.009583 
	C815.392212,601.965088 820.743713,603.404297 819.146362,595.727417 
	C821.255798,595.818359 823.378967,595.788513 825.471680,596.026672 
	C829.247742,596.456482 830.531433,594.706604 830.921509,591.021484 
	C841.002991,590.960388 841.002930,590.960388 841.002930,581.036072 
	C841.002930,580.037292 841.066772,579.033752 840.993103,578.040466 
	C840.192932,567.249023 838.364868,556.777405 830.790283,548.346313 
	C828.808655,546.140564 829.850586,544.258911 831.107544,542.596191 
	C838.556824,532.742493 842.090820,522.067261 840.136963,509.478882 
	C838.629883,499.769379 834.591675,491.407745 827.948364,484.691406 
	C817.782288,474.413513 804.724976,470.182556 790.444458,470.041016 
	C771.469604,469.852966 752.491516,469.994659 733.514771,469.994659 
	C728.718628,469.994659 723.922546,469.994629 719.140930,469.994629 
	C719.140930,471.945465 719.140930,473.436676 718.685852,475.675507 
	C715.162048,475.870972 711.638245,476.066437 708.250732,476.254303 
	C707.968750,478.047272 707.742920,479.482941 706.675476,480.985687 
	C705.350708,480.988159 703.999146,481.162842 702.705933,480.962158 
	C698.009644,480.233429 696.533508,482.222229 696.914062,486.795746 
	C697.297241,491.401764 697.026733,496.062195 696.280640,500.966675 
	C692.567871,499.740540 689.274414,499.187408 689.117371,505.359070 
	C685.533508,505.230164 681.949707,505.101227 678.129883,505.332794 
	C678.614868,509.506165 676.726807,511.534485 672.589478,510.952789 
	C667.697632,510.265015 666.867676,512.549438 666.901733,516.915833 
	C667.090942,541.120667 666.995422,565.327637 666.143677,589.949402 
	C658.474792,589.949402 650.805908,589.949402 642.963989,589.949402 
	C642.963989,591.911743 642.963989,593.382812 642.049622,594.943970 
	C638.789185,594.943970 635.528748,594.943970 631.909485,594.943970 
	C631.909485,597.292603 631.909485,599.085938 631.007874,600.984375 
	C629.184326,600.988342 627.335266,601.189026 625.542236,600.957153 
	C621.206177,600.396606 619.665649,602.016785 619.898682,606.473389 
	C620.253174,613.251892 620.256592,620.076721 619.896484,626.854553 
	C619.663513,631.239868 621.384583,632.226135 625.371094,632.083008 
	C632.656067,631.821472 639.972168,631.724609 647.245972,632.111389 
	C651.866882,632.357117 653.771606,630.900269 653.910889,626.056213 
	C655.734924,626.037598 657.578308,625.841248 659.378967,626.037292 
	C663.132935,626.446045 664.632080,624.890076 664.926514,621.023621 
	C674.696960,620.956848 674.696594,620.956848 675.104248,611.693054 
	C675.111328,611.531128 675.164612,611.371216 675.842407,611.347168 
	C685.260010,624.471497 697.571899,632.345276 714.179016,631.982422 
	C741.091797,631.394409 768.059387,633.549500 795.021851,630.560913 
	C794.880737,627.900024 794.405457,625.044006 799.034973,625.153381 
	C799.073730,623.773682 799.112549,622.393982 800.043152,621.003479 
	C803.523865,620.655151 807.004578,620.306824 810.956543,619.284241 
M450.959106,621.011902 
	C452.956909,621.008545 454.956573,620.948914 456.952148,621.014221 
	C460.553375,621.132019 462.249878,619.859070 462.091431,615.846558 
	C461.796051,608.366333 461.897064,600.863831 462.058380,593.375427 
	C462.126495,590.212524 461.183075,588.866699 457.818817,588.936707 
	C449.498138,589.109863 441.171112,589.035583 432.847260,588.975098 
	C428.959076,588.946899 428.155029,590.599060 429.147827,594.279785 
	C425.831299,594.649109 422.514801,595.018494 419.135498,595.394836 
	C419.041992,597.348145 418.956543,599.133301 417.974823,600.988403 
	C415.323853,600.991821 412.633331,600.735535 410.041901,601.130066 
	C409.044678,601.281860 407.519226,602.912964 407.517181,603.872803 
	C407.500214,611.772583 408.334442,619.713318 407.757263,627.556824 
	C407.448059,631.758972 408.733398,632.100464 412.006958,632.045471 
	C419.129486,631.925903 426.273315,631.700989 433.373596,632.115601 
	C438.185486,632.396729 439.722443,630.603821 439.682617,625.817627 
	C441.314209,625.877625 442.955963,625.842712 444.575317,626.016602 
	C448.278625,626.414490 450.675659,625.465698 450.959106,621.011902 
M329.170563,582.685059 
	C321.253174,567.018311 318.962708,549.626892 314.107178,533.030579 
	C309.078705,515.843201 304.907928,498.477051 293.098328,484.162201 
	C285.207916,474.597961 275.127899,471.103394 262.987823,470.923462 
	C262.987823,472.893951 262.987823,474.366699 262.084106,475.965088 
	C259.188965,475.965088 256.293854,475.965088 253.654160,475.965088 
	C253.018723,478.577515 252.501541,480.703796 251.148239,482.961456 
	C247.859802,482.550476 244.571365,482.139526 240.992493,481.692261 
	C240.992493,491.603882 240.938309,500.575104 241.060654,509.543915 
	C241.076065,510.672577 241.906311,512.688660 242.552475,512.770752 
	C248.757996,513.559082 250.881729,518.649780 252.416290,523.162964 
	C257.013306,536.682739 261.380188,550.327209 264.856659,564.169128 
	C268.591614,579.040039 272.310242,593.854187 280.078003,607.199402 
	C288.581116,621.807983 299.446198,633.417175 318.291687,631.897949 
	C325.776764,631.294556 333.458527,630.236145 339.818665,624.026123 
	C343.304138,622.292419 346.789642,620.558777 350.989502,618.922424 
	C356.236908,615.539246 362.358398,612.995911 366.567719,608.615234 
	C379.167908,595.501953 383.087891,577.837708 388.753448,561.369019 
	C393.601196,547.277649 395.753265,532.273254 400.300812,518.057678 
	C402.392303,511.519592 404.816162,504.050323 412.633850,500.985199 
	C413.437256,500.670197 413.876953,498.649109 413.953552,497.387360 
	C414.392548,490.159119 414.641357,482.919586 415.013947,475.686951 
	C415.256744,470.974365 413.620941,468.966522 409.056641,470.140594 
	C403.875885,471.473236 398.979248,473.910553 393.220886,475.996490 
	C387.812225,478.721375 382.403564,481.446259 376.284149,484.280304 
	C374.159515,485.377930 371.874390,486.247467 369.936798,487.610962 
	C358.868958,495.399170 352.917603,506.716492 348.441010,519.058411 
	C343.439880,532.846375 339.188049,546.784241 336.678345,561.313599 
	C335.403503,568.693970 332.183960,575.738464 329.170563,582.685059 
M583.949280,488.487152 
	C581.813538,489.968231 579.450378,491.208832 577.583435,492.974121 
	C571.241516,498.970764 566.600220,506.054474 563.802856,514.435364 
	C561.519043,521.277954 558.120728,527.770325 556.114807,534.678772 
	C553.072632,545.156555 550.775757,555.852417 548.233398,566.472717 
	C547.348389,570.169678 546.674622,573.917236 545.884827,577.736206 
	C548.769409,577.393555 551.133179,577.112732 553.041809,576.885986 
	C553.369446,578.503906 553.625305,579.767395 553.741150,581.717529 
	C551.840332,585.094360 550.462524,588.967346 547.876038,591.693726 
	C545.744080,593.941223 544.000061,598.759705 539.240295,595.275391 
	C542.602600,592.366577 545.762512,587.990967 543.456909,584.441406 
	C538.457275,576.744324 536.722351,568.191162 534.340759,559.726990 
	C531.562622,549.853516 528.394104,540.066833 526.138611,530.074585 
	C522.457397,513.766235 517.419128,498.093323 506.924011,484.789062 
	C499.158173,474.944489 488.804626,470.424622 476.121796,471.067047 
	C476.121796,472.921967 476.121796,474.400269 475.711731,476.512878 
	C472.226318,476.290802 468.740906,476.068695 464.946655,475.826904 
	C464.946655,478.582520 464.946655,480.676025 464.150482,482.953674 
	C461.350220,482.327911 458.551178,481.364166 455.748657,481.353882 
	C455.169586,481.351776 454.128265,484.885193 454.071960,486.811646 
	C453.867645,493.803009 453.895355,500.806427 454.072784,507.799255 
	C454.108154,509.194305 454.843170,511.387756 455.844086,511.806519 
	C461.365967,514.116882 464.452393,518.829224 466.128357,523.791077 
	C470.855927,537.787231 474.944122,552.009399 478.943817,566.238220 
	C482.209106,577.854370 484.034241,589.931641 490.209412,600.568848 
	C494.113068,607.293091 497.084534,615.066406 502.482117,620.297119 
	C510.702698,628.263550 521.037964,633.747070 533.313965,631.900452 
	C540.092590,630.880798 547.180420,629.984314 552.808716,624.015015 
	C555.988892,622.625610 559.169128,621.236206 562.913452,619.475342 
	C566.102051,617.986084 569.450806,616.763184 572.450134,614.959290 
	C582.753723,608.762634 588.426025,598.465576 592.704651,588.122681 
	C598.015869,575.283813 601.088318,561.511841 605.018921,548.110962 
	C608.099609,537.607849 610.559570,526.896484 614.178162,516.587524 
	C616.266602,510.637604 618.199768,503.877167 625.663940,501.576141 
	C626.699097,501.257019 627.875305,499.329498 627.899292,498.124817 
	C628.084290,488.843628 628.001160,479.557098 628.001160,470.116425 
	C619.935791,469.454132 613.332092,472.213562 606.227600,475.989929 
	C598.875122,479.927704 591.522705,483.865448 583.949280,488.487152 
z"/>
<path fill="#DB3D4F" opacity="1.000000" stroke="none" 
	d="
M464.946655,482.769562 
	C464.946655,480.676025 464.946655,478.582520 464.946655,475.826904 
	C468.740906,476.068695 472.226318,476.290802 476.219208,476.370117 
	C481.721619,479.427979 487.172485,482.101562 491.612946,485.943024 
	C499.889008,493.102753 504.634338,502.860321 507.839050,513.049866 
	C512.972229,529.371094 517.052246,546.021118 522.026733,562.395691 
	C524.818665,571.586060 528.185974,580.643799 531.997437,589.457092 
	C533.163574,592.153564 536.665161,593.839966 539.097229,595.988953 
	C544.000061,598.759705 545.744080,593.941223 547.876038,591.693726 
	C550.462524,588.967346 551.840332,585.094360 553.972351,581.038696 
	C556.465210,572.913635 558.909546,565.517029 560.954590,558.011719 
	C567.252808,534.897156 570.883362,510.830811 585.377197,490.668365 
	C585.692749,490.229401 584.603943,488.780884 584.170288,487.803223 
	C591.522705,483.865448 598.875122,479.927704 607.033875,476.038513 
	C610.274231,476.087128 612.708252,476.087128 615.647217,476.087128 
	C615.647217,485.494873 615.670166,494.437225 615.604126,503.378937 
	C615.598755,504.104034 615.167725,505.247528 614.624146,505.484375 
	C605.364380,509.519196 602.967163,518.395874 600.397095,526.655579 
	C595.812622,541.389343 592.266724,556.442688 587.917847,571.254150 
	C582.753967,588.841248 577.228455,606.327881 562.547363,618.893860 
	C562.352356,619.060791 562.409729,619.522583 562.349304,619.846802 
	C559.169128,621.236206 555.988892,622.625610 552.008789,623.937988 
	C528.552002,627.025879 515.046448,620.686340 504.884125,600.050232 
	C499.434021,588.982971 495.816467,576.944336 492.075745,565.121460 
	C487.377838,550.273071 483.730591,535.089478 478.919617,520.281311 
	C477.397278,515.595520 474.490753,510.290894 470.598663,507.731506 
	C466.354675,504.940643 466.069397,502.103912 466.171387,498.148743 
	C466.269989,494.326080 466.297516,490.494537 466.136139,486.676147 
	C466.080505,485.359558 465.362244,484.070953 464.946655,482.769562 
z"/>
<path fill="#DB3D4F" opacity="1.000000" stroke="none" 
	d="
M350.275146,618.825134 
	C346.789642,620.558777 343.304138,622.292419 339.026367,623.936096 
	C314.335815,626.848938 301.193146,620.423523 290.801758,598.497864 
	C285.371033,587.039246 281.933258,574.592712 278.091156,562.435669 
	C273.495148,547.893311 269.682892,533.101746 265.010620,518.585693 
	C263.087402,512.610474 259.744171,507.127289 253.019913,505.152283 
	C253.019913,501.009613 253.154205,497.178650 252.980515,493.361664 
	C252.820419,489.843323 252.329529,486.339996 251.984344,482.830078 
	C252.501541,480.703796 253.018723,478.577515 253.654160,475.965088 
	C256.293854,475.965088 259.188965,475.965088 262.841370,476.083008 
	C264.083984,476.651947 264.492645,477.318604 265.065826,477.522278 
	C278.369263,482.249573 286.181427,492.532227 291.131653,504.878693 
	C295.758942,516.419861 299.234375,528.437805 302.918945,540.338135 
	C307.538879,555.259460 311.495636,570.397461 316.531189,585.171814 
	C317.962067,589.370056 322.152618,592.627747 325.366028,596.542969 
	C330.262604,598.122437 333.214020,595.413879 335.058014,592.021667 
	C338.049469,586.518616 341.052216,580.847107 342.810699,574.881348 
	C347.872437,557.708984 352.153168,540.307983 357.054199,523.085999 
	C360.474182,511.068451 365.120972,499.544403 373.065277,489.638367 
	C374.467438,487.889984 375.689636,485.997253 376.994934,484.171143 
	C382.403564,481.446259 387.812225,478.721375 394.035400,476.039032 
	C397.121552,476.081573 399.393188,476.081573 402.194672,476.081573 
	C402.194672,483.193481 402.220520,489.818512 402.185760,496.443237 
	C402.161469,501.075287 403.501678,506.147125 396.963531,508.197235 
	C395.269928,508.728271 393.936554,511.265381 392.993042,513.157898 
	C390.846100,517.464417 388.539093,521.794617 387.192993,526.378296 
	C382.599274,542.020752 378.560516,557.825867 373.987915,573.474854 
	C370.059631,586.918884 365.636658,600.213257 356.606689,611.344177 
	C354.548920,613.880615 352.388397,616.333679 350.275146,618.825134 
z"/>
<path fill="#DB3D4F" opacity="1.000000" stroke="none" 
	d="
M830.024780,591.189331 
	C830.531433,594.706604 829.247742,596.456482 825.471680,596.026672 
	C823.378967,595.788513 821.255798,595.818359 818.539185,595.532654 
	C811.600403,595.202209 805.268799,595.066528 798.969116,594.963135 
	C799.001038,594.995544 799.065735,595.059448 799.028320,594.588745 
	C798.987549,590.453125 798.990234,586.788208 798.979919,583.123352 
	C798.945251,570.811584 793.333801,565.247375 780.857788,565.218628 
	C769.030273,565.191406 757.202637,565.212708 745.375061,565.212708 
	C738.423950,565.212708 731.472839,565.212708 723.673462,565.212708 
	C723.673462,556.817627 723.673462,548.879150 723.671265,540.593018 
	C723.836121,538.886475 724.003174,537.527588 724.119568,536.580750 
	C727.668518,535.947632 730.834167,535.382874 734.457275,534.935547 
	C751.881409,535.019165 768.848145,534.985291 786.204834,535.012268 
	C796.409363,532.549805 801.462585,523.739075 797.851807,514.998840 
	C795.028748,508.165405 789.476257,505.586853 782.282349,505.612061 
	C759.789734,505.690887 737.296631,505.639709 714.803711,505.638947 
	C713.027283,505.638885 711.250854,505.638977 709.103271,505.638977 
	C709.103271,498.622498 709.205200,492.143341 709.030823,485.671600 
	C708.987793,484.074829 708.045898,482.502289 707.517151,480.918640 
	C707.742920,479.482941 707.968750,478.047272 708.250732,476.254303 
	C711.638245,476.066437 715.162048,475.870972 719.292480,475.456421 
	C721.692566,475.434143 723.485657,475.798096 725.279480,475.802124 
	C744.094421,475.844391 762.909668,475.794861 781.724487,475.860413 
	C785.206543,475.872528 788.763855,475.898376 792.156494,476.572266 
	C824.867737,483.069611 839.303772,519.549011 820.053528,546.880310 
	C818.743774,548.739929 817.024048,550.145142 819.206116,552.858643 
	C826.633545,562.095154 829.229919,572.915588 828.955750,584.613281 
	C828.904602,586.795776 829.648071,588.996826 830.024780,591.189331 
z"/>
<path fill="#DB3D4F" opacity="1.000000" stroke="none" 
	d="
M799.151367,621.014282 
	C799.112549,622.393982 799.073730,623.773682 798.462219,625.338135 
	C774.245056,625.346985 750.600952,625.098694 726.956238,625.014038 
	C698.626709,624.912598 679.673584,606.132446 679.570923,577.776428 
	C679.499207,557.950684 679.626526,538.124084 679.501404,518.298889 
	C679.473328,513.854431 678.762390,509.414368 678.365845,504.972290 
	C681.949707,505.101227 685.533508,505.230164 689.845215,505.396484 
	C693.158508,505.387970 695.744019,505.342072 698.762329,505.397888 
	C702.434326,505.499664 705.673462,505.499664 708.893738,505.499664 
	C709.064758,508.082062 709.183960,509.882538 709.226807,512.165771 
	C709.132629,534.809265 709.044678,556.970154 709.130615,579.130493 
	C709.166382,588.345276 715.029602,594.914734 723.638000,594.974976 
	C745.127380,595.125488 766.619019,594.940247 788.558228,594.955811 
	C792.359680,595.034424 795.712708,595.046936 799.065735,595.059448 
	C799.065735,595.059448 799.001038,594.995544 798.987183,595.403442 
	C799.032410,597.572998 799.091553,599.334656 799.095032,601.555786 
	C799.076721,608.348206 799.114014,614.681274 799.151367,621.014282 
z"/>
<path fill="#06FDFD" opacity="1.000000" stroke="none" 
	d="
M251.566284,482.895752 
	C252.329529,486.339996 252.820419,489.843323 252.980515,493.361664 
	C253.154205,497.178650 253.019913,501.009613 253.019913,505.152283 
	C259.744171,507.127289 263.087402,512.610474 265.010620,518.585693 
	C269.682892,533.101746 273.495148,547.893311 278.091156,562.435669 
	C281.933258,574.592712 285.371033,587.039246 290.801758,598.497864 
	C301.193146,620.423523 314.335815,626.848938 338.648254,623.992554 
	C333.458527,630.236145 325.776764,631.294556 318.291687,631.897949 
	C299.446198,633.417175 288.581116,621.807983 280.078003,607.199402 
	C272.310242,593.854187 268.591614,579.040039 264.856659,564.169128 
	C261.380188,550.327209 257.013306,536.682739 252.416290,523.162964 
	C250.881729,518.649780 248.757996,513.559082 242.552475,512.770752 
	C241.906311,512.688660 241.076065,510.672577 241.060654,509.543915 
	C240.938309,500.575104 240.992493,491.603882 240.992493,481.692261 
	C244.571365,482.139526 247.859802,482.550476 251.566284,482.895752 
z"/>
<path fill="#06FDFD" opacity="1.000000" stroke="none" 
	d="
M678.247864,505.152527 
	C678.762390,509.414368 679.473328,513.854431 679.501404,518.298889 
	C679.626526,538.124084 679.499207,557.950684 679.570923,577.776428 
	C679.673584,606.132446 698.626709,624.912598 726.956238,625.014038 
	C750.600952,625.098694 774.245056,625.346985 798.219910,625.796509 
	C794.405457,625.044006 794.880737,627.900024 795.021851,630.560913 
	C768.059387,633.549500 741.091797,631.394409 714.179016,631.982422 
	C697.571899,632.345276 685.260010,624.471497 675.345459,610.929077 
	C672.900574,604.052795 670.994080,597.581299 668.943787,591.155701 
	C668.727295,590.477173 667.666443,590.067993 666.997375,589.533875 
	C666.995422,565.327637 667.090942,541.120667 666.901733,516.915833 
	C666.867676,512.549438 667.697632,510.265015 672.589478,510.952789 
	C676.726807,511.534485 678.614868,509.506165 678.247864,505.152527 
z"/>
<path fill="#06FDFD" opacity="1.000000" stroke="none" 
	d="
M464.548584,482.861633 
	C465.362244,484.070953 466.080505,485.359558 466.136139,486.676147 
	C466.297516,490.494537 466.269989,494.326080 466.171387,498.148743 
	C466.069397,502.103912 466.354675,504.940643 470.598663,507.731506 
	C474.490753,510.290894 477.397278,515.595520 478.919617,520.281311 
	C483.730591,535.089478 487.377838,550.273071 492.075745,565.121460 
	C495.816467,576.944336 499.434021,588.982971 504.884125,600.050232 
	C515.046448,620.686340 528.552002,627.025879 551.629028,623.980530 
	C547.180420,629.984314 540.092590,630.880798 533.313965,631.900452 
	C521.037964,633.747070 510.702698,628.263550 502.482117,620.297119 
	C497.084534,615.066406 494.113068,607.293091 490.209412,600.568848 
	C484.034241,589.931641 482.209106,577.854370 478.943817,566.238220 
	C474.944122,552.009399 470.855927,537.787231 466.128357,523.791077 
	C464.452393,518.829224 461.365967,514.116882 455.844086,511.806519 
	C454.843170,511.387756 454.108154,509.194305 454.072784,507.799255 
	C453.895355,500.806427 453.867645,493.803009 454.071960,486.811646 
	C454.128265,484.885193 455.169586,481.351776 455.748657,481.353882 
	C458.551178,481.364166 461.350220,482.327911 464.548584,482.861633 
z"/>
<path fill="#FE05FD" opacity="1.000000" stroke="none" 
	d="
M830.473145,591.105408 
	C829.648071,588.996826 828.904602,586.795776 828.955750,584.613281 
	C829.229919,572.915588 826.633545,562.095154 819.206116,552.858643 
	C817.024048,550.145142 818.743774,548.739929 820.053528,546.880310 
	C839.303772,519.549011 824.867737,483.069611 792.156494,476.572266 
	C788.763855,475.898376 785.206543,475.872528 781.724487,475.860413 
	C762.909668,475.794861 744.094421,475.844391 725.279480,475.802124 
	C723.485657,475.798096 721.692566,475.434143 719.520020,475.082581 
	C719.140930,473.436676 719.140930,471.945465 719.140930,469.994629 
	C723.922546,469.994629 728.718628,469.994659 733.514771,469.994659 
	C752.491516,469.994659 771.469604,469.852966 790.444458,470.041016 
	C804.724976,470.182556 817.782288,474.413513 827.948364,484.691406 
	C834.591675,491.407745 838.629883,499.769379 840.136963,509.478882 
	C842.090820,522.067261 838.556824,532.742493 831.107544,542.596191 
	C829.850586,544.258911 828.808655,546.140564 830.790283,548.346313 
	C838.364868,556.777405 840.192932,567.249023 840.993103,578.040466 
	C841.066772,579.033752 841.002930,580.037292 841.002930,581.036072 
	C841.002930,590.960388 841.002991,590.960388 830.473145,591.105408 
z"/>
<path fill="#FE05FD" opacity="1.000000" stroke="none" 
	d="
M539.168762,595.632202 
	C536.665161,593.839966 533.163574,592.153564 531.997437,589.457092 
	C528.185974,580.643799 524.818665,571.586060 522.026733,562.395691 
	C517.052246,546.021118 512.972229,529.371094 507.839050,513.049866 
	C504.634338,502.860321 499.889008,493.102753 491.612946,485.943024 
	C487.172485,482.101562 481.721619,479.427979 476.424255,476.052979 
	C476.121796,474.400269 476.121796,472.921967 476.121796,471.067047 
	C488.804626,470.424622 499.158173,474.944489 506.924011,484.789062 
	C517.419128,498.093323 522.457397,513.766235 526.138611,530.074585 
	C528.394104,540.066833 531.562622,549.853516 534.340759,559.726990 
	C536.722351,568.191162 538.457275,576.744324 543.456909,584.441406 
	C545.762512,587.990967 542.602600,592.366577 539.168762,595.632202 
z"/>
<path fill="#FE05FD" opacity="1.000000" stroke="none" 
	d="
M325.077637,596.316772 
	C322.152618,592.627747 317.962067,589.370056 316.531189,585.171814 
	C311.495636,570.397461 307.538879,555.259460 302.918945,540.338135 
	C299.234375,528.437805 295.758942,516.419861 291.131653,504.878693 
	C286.181427,492.532227 278.369263,482.249573 265.065826,477.522278 
	C264.492645,477.318604 264.083984,476.651947 263.293243,476.020203 
	C262.987823,474.366699 262.987823,472.893951 262.987823,470.923462 
	C275.127899,471.103394 285.207916,474.597961 293.098328,484.162201 
	C304.907928,498.477051 309.078705,515.843201 314.107178,533.030579 
	C318.962708,549.626892 321.253174,567.018311 329.590118,583.209534 
	C328.365662,587.928284 326.721649,592.122498 325.077637,596.316772 
z"/>
<path fill="#FE05FD" opacity="1.000000" stroke="none" 
	d="
M350.632324,618.873779 
	C352.388397,616.333679 354.548920,613.880615 356.606689,611.344177 
	C365.636658,600.213257 370.059631,586.918884 373.987915,573.474854 
	C378.560516,557.825867 382.599274,542.020752 387.192993,526.378296 
	C388.539093,521.794617 390.846100,517.464417 392.993042,513.157898 
	C393.936554,511.265381 395.269928,508.728271 396.963531,508.197235 
	C403.501678,506.147125 402.161469,501.075287 402.185760,496.443237 
	C402.220520,489.818512 402.194672,483.193481 402.194672,476.081573 
	C399.393188,476.081573 397.121552,476.081573 394.404480,475.974609 
	C398.979248,473.910553 403.875885,471.473236 409.056641,470.140594 
	C413.620941,468.966522 415.256744,470.974365 415.013947,475.686951 
	C414.641357,482.919586 414.392548,490.159119 413.953552,497.387360 
	C413.876953,498.649109 413.437256,500.670197 412.633850,500.985199 
	C404.816162,504.050323 402.392303,511.519592 400.300812,518.057678 
	C395.753265,532.273254 393.601196,547.277649 388.753448,561.369019 
	C383.087891,577.837708 379.167908,595.501953 366.567719,608.615234 
	C362.358398,612.995911 356.236908,615.539246 350.632324,618.873779 
z"/>
<path fill="#FE05FD" opacity="1.000000" stroke="none" 
	d="
M562.631348,619.661072 
	C562.409729,619.522583 562.352356,619.060791 562.547363,618.893860 
	C577.228455,606.327881 582.753967,588.841248 587.917847,571.254150 
	C592.266724,556.442688 595.812622,541.389343 600.397095,526.655579 
	C602.967163,518.395874 605.364380,509.519196 614.624146,505.484375 
	C615.167725,505.247528 615.598755,504.104034 615.604126,503.378937 
	C615.670166,494.437225 615.647217,485.494873 615.647217,476.087128 
	C612.708252,476.087128 610.274231,476.087128 607.401001,475.961670 
	C613.332092,472.213562 619.935791,469.454132 628.001160,470.116425 
	C628.001160,479.557098 628.084290,488.843628 627.899292,498.124817 
	C627.875305,499.329498 626.699097,501.257019 625.663940,501.576141 
	C618.199768,503.877167 616.266602,510.637604 614.178162,516.587524 
	C610.559570,526.896484 608.099609,537.607849 605.018921,548.110962 
	C601.088318,561.511841 598.015869,575.283813 592.704651,588.122681 
	C588.426025,598.465576 582.753723,608.762634 572.450134,614.959290 
	C569.450806,616.763184 566.102051,617.986084 562.631348,619.661072 
z"/>
<path fill="#06FDFD" opacity="1.000000" stroke="none" 
	d="
M709.303162,511.682983 
	C709.183960,509.882538 709.064758,508.082062 708.893738,505.499664 
	C705.673462,505.499664 702.434326,505.499664 698.761719,505.033020 
	C697.899780,503.277161 697.471191,501.987976 697.042664,500.698761 
	C697.026733,496.062195 697.297241,491.401764 696.914062,486.795746 
	C696.533508,482.222229 698.009644,480.233429 702.705933,480.962158 
	C703.999146,481.162842 705.350708,480.988159 707.096313,480.952148 
	C708.045898,482.502289 708.987793,484.074829 709.030823,485.671600 
	C709.205200,492.143341 709.103271,498.622498 709.103271,505.638977 
	C711.250854,505.638977 713.027283,505.638885 714.803711,505.638947 
	C737.296631,505.639709 759.789734,505.690887 782.282349,505.612061 
	C789.476257,505.586853 795.028748,508.165405 797.851807,514.998840 
	C801.462585,523.739075 796.409363,532.549805 786.302124,534.647766 
	C786.261902,532.807495 786.514343,531.392639 786.869934,529.543579 
	C788.636597,517.879944 781.213928,512.446655 773.239258,512.210571 
	C755.850891,511.695831 738.430603,512.260071 720.593689,512.203552 
	C716.543762,511.910156 712.923462,511.796570 709.303162,511.682983 
z"/>
<path fill="#06FDFD" opacity="1.000000" stroke="none" 
	d="
M325.366028,596.542969 
	C326.721649,592.122498 328.365662,587.928284 329.926636,583.334351 
	C332.183960,575.738464 335.403503,568.693970 336.678345,561.313599 
	C339.188049,546.784241 343.439880,532.846375 348.441010,519.058411 
	C352.917603,506.716492 358.868958,495.399170 369.936798,487.610962 
	C371.874390,486.247467 374.159515,485.377930 376.639526,484.225708 
	C375.689636,485.997253 374.467438,487.889984 373.065277,489.638367 
	C365.120972,499.544403 360.474182,511.068451 357.054199,523.085999 
	C352.153168,540.307983 347.872437,557.708984 342.810699,574.881348 
	C341.052216,580.847107 338.049469,586.518616 335.058014,592.021667 
	C333.214020,595.413879 330.262604,598.122437 325.366028,596.542969 
z"/>
<path fill="#DB3D4F" opacity="1.000000" stroke="none" 
	d="
M631.909424,600.879211 
	C631.909485,599.085938 631.909485,597.292603 631.909485,594.943970 
	C635.528748,594.943970 638.789185,594.943970 642.970886,594.980347 
	C650.074646,595.016724 656.257080,595.016724 662.769409,595.016724 
	C662.769409,602.736023 662.687439,609.489563 662.827698,616.238464 
	C662.862244,617.903198 663.619690,619.552979 664.044800,621.209595 
	C664.632080,624.890076 663.132935,626.446045 659.378967,626.037292 
	C657.578308,625.841248 655.734924,626.037598 653.087402,625.977417 
	C645.833679,625.428711 639.403442,624.958679 632.862305,624.480591 
	C632.862305,620.800659 632.983398,617.329956 632.831604,613.871216 
	C632.641296,609.535461 632.227051,605.209412 631.909424,600.879211 
z"/>
<path fill="#DB3D4F" opacity="1.000000" stroke="none" 
	d="
M418.871094,600.918396 
	C418.956543,599.133301 419.041992,597.348145 419.135498,595.394836 
	C422.514801,595.018494 425.831299,594.649109 429.757782,594.443115 
	C436.554901,594.882751 442.742065,595.158997 449.264923,595.450256 
	C449.264923,598.789062 449.180298,601.595825 449.282776,604.395691 
	C449.486633,609.965149 449.793427,615.530762 450.057678,621.097961 
	C450.675659,625.465698 448.278625,626.414490 444.575317,626.016602 
	C442.955963,625.842712 441.314209,625.877625 438.957764,625.789795 
	C432.095642,625.360901 425.958374,624.959839 419.554260,624.541382 
	C419.554260,622.646057 419.605347,620.844299 419.544891,619.046265 
	C419.341705,613.002930 419.098816,606.960938 418.871094,600.918396 
z"/>
<path fill="#06FDFD" opacity="1.000000" stroke="none" 
	d="
M584.059814,488.145203 
	C584.603943,488.780884 585.692749,490.229401 585.377197,490.668365 
	C570.883362,510.830811 567.252808,534.897156 560.954590,558.011719 
	C558.909546,565.517029 556.465210,572.913635 554.042358,580.695374 
	C553.625305,579.767395 553.369446,578.503906 553.041809,576.885986 
	C551.133179,577.112732 548.769409,577.393555 545.884827,577.736206 
	C546.674622,573.917236 547.348389,570.169678 548.233398,566.472717 
	C550.775757,555.852417 553.072632,545.156555 556.114807,534.678772 
	C558.120728,527.770325 561.519043,521.277954 563.802856,514.435364 
	C566.600220,506.054474 571.241516,498.970764 577.583435,492.974121 
	C579.450378,491.208832 581.813538,489.968231 584.059814,488.145203 
z"/>
<path fill="#06FDFD" opacity="1.000000" stroke="none" 
	d="
M631.458618,600.931763 
	C632.227051,605.209412 632.641296,609.535461 632.831604,613.871216 
	C632.983398,617.329956 632.862305,620.800659 632.862305,624.480591 
	C639.403442,624.958679 645.833679,625.428711 652.651245,626.098755 
	C653.771606,630.900269 651.866882,632.357117 647.245972,632.111389 
	C639.972168,631.724609 632.656067,631.821472 625.371094,632.083008 
	C621.384583,632.226135 619.663513,631.239868 619.896484,626.854553 
	C620.256592,620.076721 620.253174,613.251892 619.898682,606.473389 
	C619.665649,602.016785 621.206177,600.396606 625.542236,600.957153 
	C627.335266,601.189026 629.184326,600.988342 631.458618,600.931763 
z"/>
<path fill="#FE05FD" opacity="1.000000" stroke="none" 
	d="
M450.508392,621.054932 
	C449.793427,615.530762 449.486633,609.965149 449.282776,604.395691 
	C449.180298,601.595825 449.264923,598.789062 449.264923,595.450256 
	C442.742065,595.158997 436.554901,594.882751 430.119507,594.241821 
	C428.155029,590.599060 428.959076,588.946899 432.847260,588.975098 
	C441.171112,589.035583 449.498138,589.109863 457.818817,588.936707 
	C461.183075,588.866699 462.126495,590.212524 462.058380,593.375427 
	C461.897064,600.863831 461.796051,608.366333 462.091431,615.846558 
	C462.249878,619.859070 460.553375,621.132019 456.952148,621.014221 
	C454.956573,620.948914 452.956909,621.008545 450.508392,621.054932 
z"/>
<path fill="#06FDFD" opacity="1.000000" stroke="none" 
	d="
M418.422974,600.953369 
	C419.098816,606.960938 419.341705,613.002930 419.544891,619.046265 
	C419.605347,620.844299 419.554260,622.646057 419.554260,624.541382 
	C425.958374,624.959839 432.095642,625.360901 438.615417,625.960693 
	C439.722443,630.603821 438.185486,632.396729 433.373596,632.115601 
	C426.273315,631.700989 419.129486,631.925903 412.006958,632.045471 
	C408.733398,632.100464 407.448059,631.758972 407.757263,627.556824 
	C408.334442,619.713318 407.500214,611.772583 407.517181,603.872803 
	C407.519226,602.912964 409.044678,601.281860 410.041901,601.130066 
	C412.633331,600.735535 415.323853,600.991821 418.422974,600.953369 
z"/>
<path fill="#FE05FD" opacity="1.000000" stroke="none" 
	d="
M664.485657,621.116577 
	C663.619690,619.552979 662.862244,617.903198 662.827698,616.238464 
	C662.687439,609.489563 662.769409,602.736023 662.769409,595.016724 
	C656.257080,595.016724 650.074646,595.016724 643.428101,594.935303 
	C642.963989,593.382812 642.963989,591.911743 642.963989,589.949402 
	C650.805908,589.949402 658.474792,589.949402 666.570557,589.741638 
	C667.666443,590.067993 668.727295,590.477173 668.943787,591.155701 
	C670.994080,597.581299 672.900574,604.052795 675.022461,610.860718 
	C675.164612,611.371216 675.111328,611.531128 675.104248,611.693054 
	C674.696594,620.956848 674.696960,620.956848 664.485657,621.116577 
z"/>
<path fill="#FE05FD" opacity="1.000000" stroke="none" 
	d="
M799.597229,621.008911 
	C799.114014,614.681274 799.076721,608.348206 799.548096,601.557861 
	C803.433289,601.100525 806.809814,601.100525 809.984741,601.100525 
	C810.263367,602.106628 810.425354,602.421692 810.427002,602.737732 
	C810.457947,608.477966 810.469543,614.218262 810.485291,619.958557 
	C807.004578,620.306824 803.523865,620.655151 799.597229,621.008911 
z"/>
<path fill="#06FDFD" opacity="1.000000" stroke="none" 
	d="
M810.720947,619.621399 
	C810.469543,614.218262 810.457947,608.477966 810.427002,602.737732 
	C810.425354,602.421692 810.263367,602.106628 809.984741,601.100525 
	C806.809814,601.100525 803.433289,601.100525 799.603760,601.098450 
	C799.091553,599.334656 799.032410,597.572998 798.955200,595.371033 
	C805.268799,595.066528 811.600403,595.202209 818.145142,595.735718 
	C820.743713,603.404297 815.392212,601.965088 810.956543,602.009583 
	C810.956543,607.888672 810.956543,613.586426 810.720947,619.621399 
z"/>
<path fill="#FE05FD" opacity="1.000000" stroke="none" 
	d="
M696.661621,500.832703 
	C697.471191,501.987976 697.899780,503.277161 698.328857,504.931274 
	C695.744019,505.342072 693.158508,505.387970 690.240417,505.185486 
	C689.274414,499.187408 692.567871,499.740540 696.661621,500.832703 
z"/>
<path fill="#000000" opacity="1.000000" stroke="none" 
	d="
M721.023315,512.383362 
	C738.430603,512.260071 755.850891,511.695831 773.239258,512.210571 
	C781.213928,512.446655 788.636597,517.879944 786.544800,529.548462 
	C785.732239,529.831909 785.347900,529.676331 784.628174,529.282349 
	C775.808655,529.026489 767.323792,528.934326 758.840454,529.013672 
	C751.238037,529.084778 743.637329,529.344788 735.686157,529.737549 
	C734.890930,531.575134 734.445374,533.196655 733.999817,534.818115 
	C730.834167,535.382874 727.668518,535.947632 724.119568,536.580750 
	C724.003174,537.527588 723.836121,538.886475 723.329834,540.617065 
	C722.335510,540.865967 721.680481,540.743103 721.016602,540.176392 
	C721.013000,530.616150 721.018188,521.499756 721.023315,512.383362 
z"/>
<path fill="#06FDFD" opacity="1.000000" stroke="none" 
	d="
M721.025391,540.620300 
	C721.680481,540.743103 722.335510,540.865967 723.332031,540.964783 
	C723.673462,548.879150 723.673462,556.817627 723.673462,565.212708 
	C731.472839,565.212708 738.423950,565.212708 745.375061,565.212708 
	C757.202637,565.212708 769.030273,565.191406 780.857788,565.218628 
	C793.333801,565.247375 798.945251,570.811584 798.979919,583.123352 
	C798.990234,586.788208 798.987549,590.453125 799.028320,594.588745 
	C795.712708,595.046936 792.359680,595.034424 788.557312,594.556152 
	C787.727661,592.663879 787.347351,591.237488 786.980042,589.375854 
	C788.454590,576.969360 781.046753,571.805908 770.052307,571.955322 
	C753.786865,572.176575 737.516663,572.051331 720.871826,571.884094 
	C718.223389,571.437988 715.951599,571.181458 713.522705,570.907166 
	C713.522705,561.157959 713.522705,551.488770 713.522705,541.835938 
	C716.220459,541.398865 718.622925,541.009583 721.025391,540.620300 
z"/>
<path fill="#FE05FD" opacity="1.000000" stroke="none" 
	d="
M784.963562,529.520752 
	C785.347900,529.676331 785.732239,529.831909 786.441711,529.982605 
	C786.514343,531.392639 786.261902,532.807495 785.912109,534.586914 
	C768.848145,534.985291 751.881409,535.019165 734.457275,534.935547 
	C734.445374,533.196655 734.890930,531.575134 736.151428,529.738892 
	C752.965454,529.522949 768.964478,529.521851 784.963562,529.520752 
z"/>
<path fill="#FE05FD" opacity="1.000000" stroke="none" 
	d="
M721.016602,540.176392 
	C718.622925,541.009583 716.220459,541.398865 713.522705,541.835938 
	C713.522705,551.488770 713.522705,561.157959 713.522705,570.907166 
	C715.951599,571.181458 718.223389,571.437988 720.761414,572.309937 
	C720.943359,583.495178 725.509705,589.877930 733.816101,589.938660 
	C751.531799,590.068237 769.249939,589.873108 786.967041,589.811035 
	C787.347351,591.237488 787.727661,592.663879 788.108887,594.490051 
	C766.619019,594.940247 745.127380,595.125488 723.638000,594.974976 
	C715.029602,594.914734 709.166382,588.345276 709.130615,579.130493 
	C709.044678,556.970154 709.132629,534.809265 709.226807,512.165771 
	C712.923462,511.796570 716.543762,511.910156 720.593750,512.203552 
	C721.018188,521.499756 721.013000,530.616150 721.016602,540.176392 
z"/>
<path fill="#06FDFD" opacity="1.000000" stroke="none" 
	d="
M784.628174,529.282349 
	C768.964478,529.521851 752.965454,529.522949 736.501099,529.522827 
	C743.637329,529.344788 751.238037,529.084778 758.840454,529.013672 
	C767.323792,528.934326 775.808655,529.026489 784.628174,529.282349 
z"/>
<path fill="#000000" opacity="1.000000" stroke="none" 
	d="
M786.979980,589.375854 
	C769.249939,589.873108 751.531799,590.068237 733.816101,589.938660 
	C725.509705,589.877930 720.943359,583.495178 721.138123,572.499512 
	C737.516663,572.051331 753.786865,572.176575 770.052307,571.955322 
	C781.046753,571.805908 788.454590,576.969360 786.979980,589.375854 
z"/>
</svg>